<?xml version="1.0" encoding="UTF-8" standalone="no"?>
<!DOCTYPE svg PUBLIC "-//W3C//DTD SVG 1.1//EN"
 "http://www.w3.org/Graphics/SVG/1.1/DTD/svg11.dtd">
<!-- Generated by graphviz version 5.0.0 (0)
 -->
<!-- Pages: 1 -->
<svg width="421pt" height="116pt"
 viewBox="0.00 0.00 420.69 116.00" xmlns="http://www.w3.org/2000/svg" xmlns:xlink="http://www.w3.org/1999/xlink">
<g id="graph0" class="graph" transform="scale(1 1) rotate(0) translate(4 112)">
<polygon fill="white" stroke="transparent" points="-4,4 -4,-112 416.69,-112 416.69,4 -4,4"/>
<!-- fragilebyte -->
<g id="node1" class="node">
<title>fragilebyte</title>
<ellipse fill="none" stroke="black" cx="227.9" cy="-90" rx="61.99" ry="18"/>
<text text-anchor="middle" x="227.9" y="-86.3" font-family="Times,serif" font-size="14.00">fragilebyte</text>
</g>
<!-- clap -->
<g id="node2" class="node">
<title>clap</title>
<ellipse fill="none" stroke="black" cx="29.9" cy="-18" rx="29.8" ry="18"/>
<text text-anchor="middle" x="29.9" y="-14.3" font-family="Times,serif" font-size="14.00">clap</text>
</g>
<!-- fragilebyte&#45;&gt;clap -->
<g id="edge1" class="edge">
<title>fragilebyte&#45;&gt;clap</title>
<path fill="none" stroke="black" d="M187.02,-76.48C154.7,-66.32 108.56,-51.22 68.9,-36 66.82,-35.2 64.7,-34.36 62.57,-33.49"/>
<polygon fill="black" stroke="black" points="63.84,-30.23 53.27,-29.59 61.13,-36.69 63.84,-30.23"/>
</g>
<!-- local&#45;ip&#45;address -->
<g id="node3" class="node">
<title>local&#45;ip&#45;address</title>
<ellipse fill="none" stroke="black" cx="160.9" cy="-18" rx="83.39" ry="18"/>
<text text-anchor="middle" x="160.9" y="-14.3" font-family="Times,serif" font-size="14.00">local&#45;ip&#45;address</text>
</g>
<!-- fragilebyte&#45;&gt;local&#45;ip&#45;address -->
<g id="edge2" class="edge">
<title>fragilebyte&#45;&gt;local&#45;ip&#45;address</title>
<path fill="none" stroke="black" d="M212.02,-72.41C203.71,-63.73 193.39,-52.95 184.2,-43.34"/>
<polygon fill="black" stroke="black" points="186.57,-40.76 177.13,-35.96 181.51,-45.6 186.57,-40.76"/>
</g>
<!-- rand -->
<g id="node4" class="node">
<title>rand</title>
<ellipse fill="none" stroke="black" cx="294.9" cy="-18" rx="32.49" ry="18"/>
<text text-anchor="middle" x="294.9" y="-14.3" font-family="Times,serif" font-size="14.00">rand</text>
</g>
<!-- fragilebyte&#45;&gt;rand -->
<g id="edge3" class="edge">
<title>fragilebyte&#45;&gt;rand</title>
<path fill="none" stroke="black" d="M243.78,-72.41C252.53,-63.26 263.54,-51.76 273.09,-41.78"/>
<polygon fill="black" stroke="black" points="275.67,-44.16 280.05,-34.51 270.61,-39.31 275.67,-44.16"/>
</g>
<!-- tokio -->
<g id="node5" class="node">
<title>tokio</title>
<ellipse fill="none" stroke="black" cx="378.9" cy="-18" rx="33.6" ry="18"/>
<text text-anchor="middle" x="378.9" y="-14.3" font-family="Times,serif" font-size="14.00">tokio</text>
</g>
<!-- fragilebyte&#45;&gt;tokio -->
<g id="edge4" class="edge">
<title>fragilebyte&#45;&gt;tokio</title>
<path fill="none" stroke="black" d="M259.55,-74.33C284.55,-62.74 319.36,-46.6 344.94,-34.74"/>
<polygon fill="black" stroke="black" points="346.65,-37.81 354.25,-30.43 343.71,-31.46 346.65,-37.81"/>
</g>
</g>
</svg>
